<svg width="19" height="9" viewBox="0 0 19 9" fill="none" xmlns="http://www.w3.org/2000/svg">
<path d="M18.1845 1.49537C18.1851 1.68743 18.1427 1.87719 18.0604 2.05072C17.9781 2.22425 17.858 2.37713 17.7088 2.49813L9.99526 8.70754C9.76522 8.89663 9.47668 9 9.1789 9C8.88113 9 8.59259 8.89663 8.36255 8.70754L0.648994 2.27958C0.386454 2.06136 0.221352 1.74779 0.19001 1.40785C0.158668 1.0679 0.263652 0.729431 0.481866 0.466892C0.700081 0.204352 1.01365 0.0392513 1.3536 0.00790877C1.69354 -0.0234338 2.03201 0.0815496 2.29455 0.299765L9.18533 6.04637L16.0761 0.492604C16.2648 0.335397 16.4946 0.235536 16.7383 0.204837C16.982 0.174137 17.2293 0.213884 17.4511 0.319374C17.6729 0.424865 17.8599 0.591684 17.9898 0.800091C18.1198 1.0085 18.1874 1.24977 18.1845 1.49537Z" fill="white"/>
</svg>
